<svg width="190" height="190" viewBox="0 0 190 190" fill="none" xmlns="http://www.w3.org/2000/svg">
<rect width="190" height="190" fill="#DB4EB3" fill-opacity="0.58"/>
<rect x="112" y="48" width="61" height="7.625" fill="white"/>
<rect x="112" y="139" width="61" height="7.625" fill="white"/>
<rect x="137" y="155" width="8" height="8" fill="white"/>
<rect x="137" y="121" width="8" height="8" fill="white"/>
<path fill-rule="evenodd" clip-rule="evenodd" d="M44.8828 142.836L27.4412 161.003L32.9417 166.284L50.1285 148.382L67.9168 167.189L73.4564 161.949L55.4154 142.875L75.1874 122.281L69.687 117L50.1697 137.329L31.5396 117.633L26 122.872L44.8828 142.836Z" fill="white"/>
<path fill-rule="evenodd" clip-rule="evenodd" d="M45.0341 56.6591V83H52.6591V56.6591H79V49.0341H52.6591V22H45.0341V49.0341H18V56.6591H45.0341Z" fill="white"/>
</svg>
